<?xml version="1.0" encoding="utf-8"?>
<svg version="1.1" xmlns:xlink="http://www.w3.org/1999/xlink" width="14px" height="14px"
     xmlns="http://www.w3.org/2000/svg">
    <g transform="matrix(1 0 0 1 -37 -344 )">
        <path d="M 5.91422221445694 5.28733334477293  L 4.95133332683231 5.97488889942574  C 5.6811501309373 7.25703862406551  6.74296137593448 8.3188498690627  8.02511110057426 9.04866667316769  L 8.71266665522706 8.08577778554306  C 8.94150409350323 7.76533619405443  9.37371977954559 7.66646769091028  9.71911109835006 7.85555556362312  C 10.8191379700969 8.45671919047074  12.0339392118753 8.81827033465265  13.2836666492254 8.91644445111908  C 13.6881622274483 8.94849978382353  14.000050857652 9.28612515224169  13.9999999816182 9.69188889454538  L 13.9999999816182 13.1623333344332  C 14.0000859843808 13.5612350659777  13.6983767674397 13.8955342540138  13.3015555380908 13.936222222306  C 12.8893333164098 13.9790000000276  12.4739999836218 14  12.0555555397268 14  C 5.39777777069058 14  0 8.60222222930942  0 1.94444446027321  C 0 1.52600001637818  0.0209999999724274 1.11066668359017  0.0637777776940384 0.698444461909188  C 0.104465745986177 0.301623232560325  0.43876493402231 -8.59843808289887E-05  0.837666665566823 0  L 4.30811110545463 0  C 4.71387484775831 -5.08576520306962E-05  5.05150021617647 0.311837772551705  5.08355554888092 0.716333350774589  C 5.18172966534735 1.96606078812473  5.54328080952926 3.1808620299031  6.14444443637688 4.28088890164994  C 6.33353230908972 4.62628022045441  6.23466380594557 5.05849590649677  5.91422221445694 5.28733334477293  Z M 3.57311110641967 6.6990000095861  C 3.34981691392742 6.30155040293757  3.15488700521057 5.88881880954775  2.98977777385224 5.46388890009667  L 4.46755554968972 4.40844445703801  C 4.04816423694944 3.50318384064702  3.76082919933271 2.54243186436795  3.61433332858777 1.55555557189493  L 1.5633333312807 1.55555557189493  C 1.55866666462016 1.68466668283652  1.55633333128989 1.81455557155486  1.55633333128989 1.94444446027321  C 1.55555555351313 7.74355556377017  6.25644443622983 12.4444444464869  12.0555555397268 12.4444444464869  C 12.1854444284451 12.4444444464869  12.3153333171635 12.4421111131566  12.4444444281051 12.4366666687193  L 12.4444444281051 10.3856666714122  C 11.4575681356321 10.2391708006673  10.496816159353 9.95183576305056  9.59155554296199 9.53244445031028  L 8.53611109990332 11.0102222261478  C 8.11118119045225 10.8451129947894  7.69844959706243 10.6501830860726  7.3009999904139 10.4268888935803  L 7.25588887936201 10.4012222269474  C 5.73033897016334 9.53300404004887  4.46699595995112 8.26966102983666  3.59877777305264 6.74411112063798  L 3.57311110641967 6.6990000095861  Z "
              fill-rule="nonzero" fill="#cecece" stroke="none" transform="matrix(1 0 0 1 37 344 )"/>
    </g>
</svg>