<?xml version="1.0" encoding="utf-8"?>
<svg version="1.1" xmlns:xlink="http://www.w3.org/1999/xlink" width="18px" height="20px" xmlns="http://www.w3.org/2000/svg">
  <g transform="matrix(1 0 0 1 -179 -606 )">
    <path d="M 18 19  C 18 19.5522847498308  17.5522847498308 20  17 20  L 1 20  C 0.447715250169207 20  0 19.5522847498308  0 19  L 0 1  C 0 0.447715250169207  0.447715250169207 0  1 0  L 17 0  C 17.5522847498308 0  18 0.447715250169207  18 1  L 18 19  Z M 2 18  L 16 18  L 16 2  L 2 2  L 2 18  Z M 4 4  L 6 4  L 6 6  C 6 7.65685424949238  7.34314575050762 9  9 9  C 10.6568542494924 9  12 7.65685424949238  12 6  L 12 4  L 14 4  L 14 6  C 14 8.76142374915397  11.761423749154 11  9 11  C 6.23857625084603 11  4 8.76142374915397  4 6  L 4 4  Z " fill-rule="nonzero" fill="#f68c95" stroke="none" transform="matrix(1 0 0 1 179 606 )" />
  </g>
</svg>